# xmcd CD database file
#
# Track frame offsets:
#	150
#	16565
#	28352
#	36807
#	49895
#	66894
#	82440
#	93957
#	107404
#	123789
#	143969
#	161120
#
# Disc length: 2392 seconds
#
# Revision: 0
# Processed by: cddbd v1.5.2PL0 Copyright (c) Steve Scherf et al.
# Submitted via: CDex 1.51
#
DISCID=9e09560c
DTITLE=Bit By Bats - Go Go Go
DYEAR=2007
DGENRE=Rock
TTITLE0=Go Go Go
TTITLE1=One Six One
TTITLE2=Let's Heart Attack
TTITLE3=Maurie and Marie
TTITLE4=Like A Panther
TTITLE5=She Was Venezuela
TTITLE6=Dance The Dance
TTITLE7=Apartment
TTITLE8=All Night
TTITLE9=Neon Flux
TTITLE10=Out For Love
TTITLE11=In My Arms
EXTD=YEAR: 2007
EXTT0=
EXTT1=
EXTT2=
EXTT3=
EXTT4=
EXTT5=
EXTT6=
EXTT7=
EXTT8=
EXTT9=
EXTT10=
EXTT11=
PLAYORDER=
